<mxfile host="app.diagrams.net" modified="2022-08-24T07:09:24.807Z" agent="5.0 (Windows NT 10.0; Win64; x64) AppleWebKit/537.36 (KHTML, like Gecko) Chrome/104.0.0.0 Safari/537.36" etag="CnJpXpBLFFekF-qgbfYO" version="20.2.7" type="github">
  <diagram name="Page-1" id="74e2e168-ea6b-b213-b513-2b3c1d86103e">
    <mxGraphModel dx="782" dy="402" grid="1" gridSize="10" guides="1" tooltips="1" connect="1" arrows="1" fold="1" page="1" pageScale="1" pageWidth="1100" pageHeight="850" background="none" math="0" shadow="0">
      <root>
        <mxCell id="0" />
        <mxCell id="1" parent="0" />
        <mxCell id="77e6c97f196da883-1" value="4a sso" style="swimlane;html=1;childLayout=stackLayout;startSize=20;rounded=0;shadow=0;labelBackgroundColor=none;strokeWidth=1;fontFamily=Verdana;fontSize=8;align=center;swimlaneFillColor=#CCFF99;" parent="1" vertex="1">
          <mxGeometry x="70" y="40" width="640" height="820" as="geometry" />
        </mxCell>
        <mxCell id="77e6c97f196da883-3" value="browser" style="swimlane;html=1;startSize=20;swimlaneFillColor=#F19C99;fillColor=#F19C99;" parent="77e6c97f196da883-1" vertex="1">
          <mxGeometry y="20" width="160" height="800" as="geometry" />
        </mxCell>
        <mxCell id="Gtd-e73TPwi6iVOvgfYK-9" value="访问成功" style="whiteSpace=wrap;html=1;fontSize=8;fontFamily=Verdana;rounded=1;shadow=1;labelBackgroundColor=none;strokeWidth=1;" vertex="1" parent="77e6c97f196da883-3">
          <mxGeometry x="20" y="100" width="120" height="60" as="geometry" />
        </mxCell>
        <mxCell id="Gtd-e73TPwi6iVOvgfYK-16" value="302 跳转至usermanagement" style="whiteSpace=wrap;html=1;fontSize=8;fontFamily=Verdana;rounded=1;shadow=1;labelBackgroundColor=none;strokeWidth=1;" vertex="1" parent="77e6c97f196da883-3">
          <mxGeometry x="20" y="170" width="120" height="60" as="geometry" />
        </mxCell>
        <mxCell id="Gtd-e73TPwi6iVOvgfYK-27" value="携带code callback" style="whiteSpace=wrap;html=1;fontSize=8;fontFamily=Verdana;rounded=1;shadow=1;labelBackgroundColor=none;strokeWidth=1;" vertex="1" parent="77e6c97f196da883-3">
          <mxGeometry x="20" y="270" width="120" height="60" as="geometry" />
        </mxCell>
        <mxCell id="Gtd-e73TPwi6iVOvgfYK-32" value="&lt;span style=&quot;font-family: Helvetica; background-color: rgb(255, 255, 255);&quot;&gt;携带service、&lt;/span&gt;&lt;b&gt;&lt;font color=&quot;#ff9999&quot;&gt;login_challenge&lt;/font&gt;&lt;/b&gt;&lt;span style=&quot;font-family: Helvetica; background-color: rgb(255, 255, 255);&quot;&gt;&lt;br&gt;，302跳转至4a&lt;/span&gt;" style="whiteSpace=wrap;html=1;fontSize=8;fontFamily=Verdana;rounded=1;shadow=1;labelBackgroundColor=none;strokeWidth=1;" vertex="1" parent="77e6c97f196da883-3">
          <mxGeometry x="20" y="390" width="120" height="60" as="geometry" />
        </mxCell>
        <mxCell id="Gtd-e73TPwi6iVOvgfYK-44" value="携带ticket callback" style="whiteSpace=wrap;html=1;fontSize=8;fontFamily=Verdana;rounded=1;shadow=1;labelBackgroundColor=none;strokeWidth=1;" vertex="1" parent="77e6c97f196da883-3">
          <mxGeometry x="20" y="580" width="120" height="60" as="geometry" />
        </mxCell>
        <mxCell id="Gtd-e73TPwi6iVOvgfYK-59" style="edgeStyle=orthogonalEdgeStyle;rounded=0;orthogonalLoop=1;jettySize=auto;html=1;entryX=0.5;entryY=0;entryDx=0;entryDy=0;fontFamily=Helvetica;fontSize=8;fontColor=#000000;" edge="1" parent="77e6c97f196da883-3" source="Gtd-e73TPwi6iVOvgfYK-54" target="Gtd-e73TPwi6iVOvgfYK-44">
          <mxGeometry relative="1" as="geometry" />
        </mxCell>
        <mxCell id="Gtd-e73TPwi6iVOvgfYK-54" value="4a 登录" style="whiteSpace=wrap;html=1;fontSize=8;fontFamily=Verdana;rounded=1;shadow=1;labelBackgroundColor=none;strokeWidth=1;" vertex="1" parent="77e6c97f196da883-3">
          <mxGeometry x="20" y="480" width="120" height="70" as="geometry" />
        </mxCell>
        <mxCell id="Gtd-e73TPwi6iVOvgfYK-58" value="&lt;span style=&quot;font-family: Helvetica;&quot;&gt;http://www.app.com&lt;/span&gt;" style="whiteSpace=wrap;html=1;fontSize=8;fontFamily=Verdana;rounded=1;shadow=1;labelBackgroundColor=none;strokeWidth=1;" vertex="1" parent="77e6c97f196da883-3">
          <mxGeometry x="20" y="30" width="120" height="60" as="geometry" />
        </mxCell>
        <mxCell id="77e6c97f196da883-4" value="app" style="swimlane;html=1;startSize=20;fillColor=#D4E1F5;swimlaneFillColor=#D4E1F5;" parent="77e6c97f196da883-1" vertex="1">
          <mxGeometry x="160" y="20" width="160" height="800" as="geometry" />
        </mxCell>
        <mxCell id="Gtd-e73TPwi6iVOvgfYK-7" value="鉴权" style="rhombus;whiteSpace=wrap;html=1;fontSize=8;fontFamily=Verdana;rounded=1;shadow=1;labelBackgroundColor=none;strokeWidth=1;" vertex="1" parent="77e6c97f196da883-4">
          <mxGeometry x="40" y="60" width="80" height="80" as="geometry" />
        </mxCell>
        <mxCell id="Gtd-e73TPwi6iVOvgfYK-30" value="app session create" style="whiteSpace=wrap;html=1;fontSize=8;fontFamily=Verdana;rounded=1;shadow=1;labelBackgroundColor=none;strokeWidth=1;" vertex="1" parent="77e6c97f196da883-4">
          <mxGeometry x="20" y="335" width="120" height="60" as="geometry" />
        </mxCell>
        <mxCell id="77e6c97f196da883-5" value="usermanagement" style="swimlane;html=1;startSize=20;swimlaneFillColor=#9AC7BF;fillColor=#9AC7BF;" parent="77e6c97f196da883-1" vertex="1">
          <mxGeometry x="320" y="20" width="160" height="800" as="geometry" />
        </mxCell>
        <mxCell id="Gtd-e73TPwi6iVOvgfYK-23" value="是否sso" style="rhombus;whiteSpace=wrap;html=1;fontSize=8;fontFamily=Verdana;rounded=1;shadow=1;labelBackgroundColor=none;strokeWidth=1;fillColor=#D5E8D4;" vertex="1" parent="77e6c97f196da883-5">
          <mxGeometry x="40" y="210" width="80" height="80" as="geometry" />
        </mxCell>
        <mxCell id="Gtd-e73TPwi6iVOvgfYK-47" value="基于ticket、service 获取userId&amp;nbsp;" style="whiteSpace=wrap;html=1;fontSize=8;fontFamily=Verdana;rounded=1;shadow=1;labelBackgroundColor=none;strokeWidth=1;" vertex="1" parent="77e6c97f196da883-5">
          <mxGeometry x="20" y="620" width="120" height="60" as="geometry" />
        </mxCell>
        <mxCell id="Gtd-e73TPwi6iVOvgfYK-51" value="基于userId、&lt;b&gt;&lt;font color=&quot;#ff9999&quot;&gt;login_challenge&lt;/font&gt;&lt;/b&gt;&lt;br&gt;执行oauth login流程" style="whiteSpace=wrap;html=1;fontSize=8;fontFamily=Verdana;rounded=1;shadow=1;labelBackgroundColor=none;strokeWidth=1;" vertex="1" parent="77e6c97f196da883-5">
          <mxGeometry x="20" y="710" width="120" height="60" as="geometry" />
        </mxCell>
        <mxCell id="Gtd-e73TPwi6iVOvgfYK-13" style="edgeStyle=orthogonalEdgeStyle;rounded=0;orthogonalLoop=1;jettySize=auto;html=1;fontFamily=Helvetica;fontSize=8;" edge="1" parent="77e6c97f196da883-1" target="Gtd-e73TPwi6iVOvgfYK-7">
          <mxGeometry relative="1" as="geometry">
            <mxPoint x="140" y="80" as="sourcePoint" />
            <Array as="points">
              <mxPoint x="190" y="80" />
              <mxPoint x="190" y="80" />
            </Array>
          </mxGeometry>
        </mxCell>
        <mxCell id="Gtd-e73TPwi6iVOvgfYK-10" value="" style="edgeStyle=orthogonalEdgeStyle;rounded=0;orthogonalLoop=1;jettySize=auto;html=1;fontFamily=Helvetica;fontSize=8;" edge="1" parent="77e6c97f196da883-1" source="Gtd-e73TPwi6iVOvgfYK-7" target="Gtd-e73TPwi6iVOvgfYK-9">
          <mxGeometry relative="1" as="geometry" />
        </mxCell>
        <mxCell id="Gtd-e73TPwi6iVOvgfYK-15" value="true" style="edgeLabel;html=1;align=center;verticalAlign=middle;resizable=0;points=[];fontSize=8;fontFamily=Helvetica;" vertex="1" connectable="0" parent="Gtd-e73TPwi6iVOvgfYK-10">
          <mxGeometry x="0.24" y="1" relative="1" as="geometry">
            <mxPoint as="offset" />
          </mxGeometry>
        </mxCell>
        <mxCell id="Gtd-e73TPwi6iVOvgfYK-17" value="" style="edgeStyle=orthogonalEdgeStyle;rounded=0;orthogonalLoop=1;jettySize=auto;html=1;fontFamily=Helvetica;fontSize=8;" edge="1" parent="77e6c97f196da883-1" source="Gtd-e73TPwi6iVOvgfYK-7" target="Gtd-e73TPwi6iVOvgfYK-16">
          <mxGeometry relative="1" as="geometry">
            <Array as="points">
              <mxPoint x="240" y="220" />
            </Array>
          </mxGeometry>
        </mxCell>
        <mxCell id="Gtd-e73TPwi6iVOvgfYK-18" value="false" style="edgeLabel;html=1;align=center;verticalAlign=middle;resizable=0;points=[];fontSize=8;fontFamily=Helvetica;" vertex="1" connectable="0" parent="Gtd-e73TPwi6iVOvgfYK-17">
          <mxGeometry x="-0.2947" y="1" relative="1" as="geometry">
            <mxPoint as="offset" />
          </mxGeometry>
        </mxCell>
        <mxCell id="Gtd-e73TPwi6iVOvgfYK-24" value="" style="edgeStyle=orthogonalEdgeStyle;rounded=0;orthogonalLoop=1;jettySize=auto;html=1;fontFamily=Helvetica;fontSize=8;" edge="1" parent="77e6c97f196da883-1" source="Gtd-e73TPwi6iVOvgfYK-16" target="Gtd-e73TPwi6iVOvgfYK-23">
          <mxGeometry relative="1" as="geometry">
            <Array as="points">
              <mxPoint x="80" y="270" />
            </Array>
          </mxGeometry>
        </mxCell>
        <mxCell id="Gtd-e73TPwi6iVOvgfYK-28" value="" style="edgeStyle=orthogonalEdgeStyle;rounded=0;orthogonalLoop=1;jettySize=auto;html=1;fontFamily=Helvetica;fontSize=8;" edge="1" parent="77e6c97f196da883-1" source="Gtd-e73TPwi6iVOvgfYK-23" target="Gtd-e73TPwi6iVOvgfYK-27">
          <mxGeometry relative="1" as="geometry">
            <Array as="points">
              <mxPoint x="400" y="330" />
            </Array>
          </mxGeometry>
        </mxCell>
        <mxCell id="Gtd-e73TPwi6iVOvgfYK-29" value="是" style="edgeLabel;html=1;align=center;verticalAlign=middle;resizable=0;points=[];fontSize=8;fontFamily=Helvetica;" vertex="1" connectable="0" parent="Gtd-e73TPwi6iVOvgfYK-28">
          <mxGeometry x="-0.2185" y="1" relative="1" as="geometry">
            <mxPoint x="-78" y="-1" as="offset" />
          </mxGeometry>
        </mxCell>
        <mxCell id="Gtd-e73TPwi6iVOvgfYK-31" value="" style="edgeStyle=orthogonalEdgeStyle;rounded=0;orthogonalLoop=1;jettySize=auto;html=1;fontFamily=Helvetica;fontSize=8;" edge="1" parent="77e6c97f196da883-1" source="Gtd-e73TPwi6iVOvgfYK-27" target="Gtd-e73TPwi6iVOvgfYK-30">
          <mxGeometry relative="1" as="geometry">
            <Array as="points">
              <mxPoint x="80" y="390" />
            </Array>
          </mxGeometry>
        </mxCell>
        <mxCell id="Gtd-e73TPwi6iVOvgfYK-33" value="" style="edgeStyle=orthogonalEdgeStyle;rounded=0;orthogonalLoop=1;jettySize=auto;html=1;fontFamily=Helvetica;fontSize=8;" edge="1" parent="77e6c97f196da883-1" source="Gtd-e73TPwi6iVOvgfYK-23" target="Gtd-e73TPwi6iVOvgfYK-32">
          <mxGeometry relative="1" as="geometry">
            <Array as="points">
              <mxPoint x="440" y="440" />
            </Array>
          </mxGeometry>
        </mxCell>
        <mxCell id="Gtd-e73TPwi6iVOvgfYK-42" value="否" style="edgeLabel;html=1;align=center;verticalAlign=middle;resizable=0;points=[];fontSize=8;fontFamily=Helvetica;" vertex="1" connectable="0" parent="Gtd-e73TPwi6iVOvgfYK-33">
          <mxGeometry x="-0.4308" relative="1" as="geometry">
            <mxPoint as="offset" />
          </mxGeometry>
        </mxCell>
        <mxCell id="Gtd-e73TPwi6iVOvgfYK-37" value="" style="edgeStyle=orthogonalEdgeStyle;rounded=0;orthogonalLoop=1;jettySize=auto;html=1;fontFamily=Helvetica;fontSize=8;entryX=0;entryY=0.5;entryDx=0;entryDy=0;" edge="1" parent="77e6c97f196da883-1" source="Gtd-e73TPwi6iVOvgfYK-32" target="Gtd-e73TPwi6iVOvgfYK-43">
          <mxGeometry relative="1" as="geometry">
            <mxPoint x="510" y="570" as="targetPoint" />
            <Array as="points">
              <mxPoint x="80" y="480" />
            </Array>
          </mxGeometry>
        </mxCell>
        <mxCell id="Gtd-e73TPwi6iVOvgfYK-45" value="" style="edgeStyle=orthogonalEdgeStyle;rounded=0;orthogonalLoop=1;jettySize=auto;html=1;fontFamily=Helvetica;fontSize=8;exitX=1;exitY=0.5;exitDx=0;exitDy=0;" edge="1" parent="77e6c97f196da883-1" source="Gtd-e73TPwi6iVOvgfYK-43" target="Gtd-e73TPwi6iVOvgfYK-44">
          <mxGeometry relative="1" as="geometry">
            <mxPoint x="590" y="691" as="sourcePoint" />
            <Array as="points">
              <mxPoint x="590" y="630" />
            </Array>
          </mxGeometry>
        </mxCell>
        <mxCell id="Gtd-e73TPwi6iVOvgfYK-46" value="是" style="edgeLabel;html=1;align=center;verticalAlign=middle;resizable=0;points=[];fontSize=8;fontFamily=Helvetica;" vertex="1" connectable="0" parent="Gtd-e73TPwi6iVOvgfYK-45">
          <mxGeometry x="-0.0636" y="4" relative="1" as="geometry">
            <mxPoint x="131" y="-74" as="offset" />
          </mxGeometry>
        </mxCell>
        <mxCell id="Gtd-e73TPwi6iVOvgfYK-48" value="" style="edgeStyle=orthogonalEdgeStyle;rounded=0;orthogonalLoop=1;jettySize=auto;html=1;fontFamily=Helvetica;fontSize=8;" edge="1" parent="77e6c97f196da883-1" source="Gtd-e73TPwi6iVOvgfYK-44" target="Gtd-e73TPwi6iVOvgfYK-47">
          <mxGeometry relative="1" as="geometry">
            <Array as="points">
              <mxPoint x="80" y="680" />
            </Array>
          </mxGeometry>
        </mxCell>
        <mxCell id="Gtd-e73TPwi6iVOvgfYK-50" value="" style="edgeStyle=orthogonalEdgeStyle;rounded=0;orthogonalLoop=1;jettySize=auto;html=1;fontFamily=Helvetica;fontSize=8;" edge="1" parent="77e6c97f196da883-1" source="Gtd-e73TPwi6iVOvgfYK-47" target="Gtd-e73TPwi6iVOvgfYK-49">
          <mxGeometry relative="1" as="geometry" />
        </mxCell>
        <mxCell id="Gtd-e73TPwi6iVOvgfYK-55" value="" style="edgeStyle=orthogonalEdgeStyle;rounded=0;orthogonalLoop=1;jettySize=auto;html=1;fontFamily=Helvetica;fontSize=8;fontColor=#FF9999;" edge="1" parent="77e6c97f196da883-1" source="Gtd-e73TPwi6iVOvgfYK-43" target="Gtd-e73TPwi6iVOvgfYK-54">
          <mxGeometry relative="1" as="geometry">
            <Array as="points">
              <mxPoint x="550" y="540" />
            </Array>
          </mxGeometry>
        </mxCell>
        <mxCell id="Gtd-e73TPwi6iVOvgfYK-56" value="&lt;font color=&quot;#000000&quot;&gt;否&lt;/font&gt;" style="edgeLabel;html=1;align=center;verticalAlign=middle;resizable=0;points=[];fontSize=8;fontFamily=Helvetica;fontColor=#FF9999;" vertex="1" connectable="0" parent="Gtd-e73TPwi6iVOvgfYK-55">
          <mxGeometry x="-0.1793" relative="1" as="geometry">
            <mxPoint as="offset" />
          </mxGeometry>
        </mxCell>
        <mxCell id="Gtd-e73TPwi6iVOvgfYK-25" value="4a" style="swimlane;html=1;startSize=20;fillColor=#CCFF99;" vertex="1" parent="77e6c97f196da883-1">
          <mxGeometry x="480" y="20" width="160" height="800" as="geometry" />
        </mxCell>
        <mxCell id="Gtd-e73TPwi6iVOvgfYK-43" value="是否sso" style="rhombus;whiteSpace=wrap;html=1;fontSize=8;fontFamily=Verdana;rounded=1;shadow=1;labelBackgroundColor=none;strokeWidth=1;fillColor=#FF9999;" vertex="1" parent="Gtd-e73TPwi6iVOvgfYK-25">
          <mxGeometry x="30" y="420" width="80" height="80" as="geometry" />
        </mxCell>
        <mxCell id="Gtd-e73TPwi6iVOvgfYK-49" value="校验ticket 返回userId&lt;br&gt;&amp;nbsp;" style="whiteSpace=wrap;html=1;fontSize=8;fontFamily=Verdana;rounded=1;shadow=1;labelBackgroundColor=none;strokeWidth=1;" vertex="1" parent="Gtd-e73TPwi6iVOvgfYK-25">
          <mxGeometry x="10" y="620" width="120" height="60" as="geometry" />
        </mxCell>
        <mxCell id="Gtd-e73TPwi6iVOvgfYK-52" value="" style="edgeStyle=orthogonalEdgeStyle;rounded=0;orthogonalLoop=1;jettySize=auto;html=1;fontFamily=Helvetica;fontSize=8;" edge="1" parent="77e6c97f196da883-1" source="Gtd-e73TPwi6iVOvgfYK-49" target="Gtd-e73TPwi6iVOvgfYK-51">
          <mxGeometry relative="1" as="geometry">
            <Array as="points">
              <mxPoint x="560" y="760" />
            </Array>
          </mxGeometry>
        </mxCell>
        <mxCell id="Gtd-e73TPwi6iVOvgfYK-53" style="edgeStyle=orthogonalEdgeStyle;orthogonalLoop=1;jettySize=auto;html=1;entryX=0;entryY=0.5;entryDx=0;entryDy=0;fontFamily=Helvetica;fontSize=8;fontColor=#FF9999;curved=1;" edge="1" parent="77e6c97f196da883-1" source="Gtd-e73TPwi6iVOvgfYK-51" target="Gtd-e73TPwi6iVOvgfYK-27">
          <mxGeometry relative="1" as="geometry">
            <mxPoint x="20" y="416" as="targetPoint" />
            <Array as="points">
              <mxPoint x="-20" y="780" />
              <mxPoint x="-20" y="320" />
            </Array>
          </mxGeometry>
        </mxCell>
      </root>
    </mxGraphModel>
  </diagram>
</mxfile>
